<?xml version='1.0' encoding='ascii'?>
<svg xmlns="http://www.w3.org/2000/svg" version="1.1" width="1920" height="451">
    <g id="ViewLayer_LineSet" xmlns:inkscape="http://www.inkscape.org/namespaces/inkscape" inkscape:groupmode="lineset" inkscape:label="ViewLayer_LineSet">
        <g xmlns:inkscape="http://www.inkscape.org/namespaces/inkscape" inkscape:groupmode="layer" id="strokes" inkscape:label="strokes">
            <path fill="#000000" stroke-width="4.199999809265137" stroke-linecap="butt" stroke-opacity="1.0" stroke="rgb(0, 0, 0)" stroke-linejoin="miter" d=" M 134.547, 202.830 135.429, 192.869 136.312, 182.908 136.333, 182.668 137.261, 172.712 137.334, 171.921 137.864, 167.440 138.235, 166.079 138.750, 165.162 139.677, 163.916 141.276, 162.038 143.805, 159.229 147.378, 155.344 151.531, 150.866 155.656, 146.437 159.143, 142.696 161.537, 140.127 163.001, 138.587 163.851, 137.775 164.404, 137.390 165.089, 137.171 166.783, 137.016 170.474, 136.861 177.153, 136.643 187.148, 136.324 187.314, 136.318 197.309, 135.999 199.482, 135.930 209.477, 135.611 211.688, 135.540 221.683, 135.221 221.962, 135.213 228.821, 134.999 232.721, 134.914 234.604, 134.961 235.410, 135.142 235.999, 135.577 236.891, 136.839 238.523, 139.615 241.333, 144.594 245.552, 152.110 250.444, 160.831 250.584, 161.082 255.477, 169.803 255.631, 170.077 259.890, 177.662 262.751, 182.755 264.351, 185.682 265.019, 187.121 265.081, 187.750 264.747, 188.163 263.750, 188.608 261.708, 189.250 258.237, 190.252 253.073, 191.722 246.435, 193.533 238.661, 195.502 230.090, 197.447 221.120, 199.209 212.384, 200.731 204.575, 201.982 198.387, 202.929 194.304, 203.563 191.993, 203.953 190.911, 204.190 190.510, 204.365 190.361, 204.577 190.376, 204.938 190.585, 205.570 191.013, 206.595 191.660, 208.072 192.431, 209.812 193.206, 211.568 193.865, 213.092 194.323, 214.190 194.636, 214.903 194.892, 215.325 195.176, 215.557 195.680, 215.664 196.909, 215.670 199.473, 215.564 203.980, 215.340 210.828, 215.005 219.584, 214.619 229.609, 214.255 239.606, 214.003 240.262, 213.986 250.261, 213.873 250.907, 213.866 260.927, 213.864 269.711, 213.929 276.645, 214.013 281.324, 214.075 284.165, 214.112 285.794, 214.135 286.835, 214.151 287.841, 214.168 289.080, 214.191 290.749, 214.222 293.044, 214.266 296.058, 214.324 299.468, 214.389 302.844, 214.453 305.761, 214.509 307.901, 214.550 309.401, 214.579 310.506, 214.600 311.465, 214.618 312.690, 214.642 315.264, 214.691 320.438, 214.790 329.459, 214.962 339.457, 215.153 342.947, 215.220 352.945, 215.411 358.991, 215.526 368.989, 215.717 375.048, 215.833 385.046, 216.024 388.576, 216.092 397.701, 216.265 403.214, 216.364 406.572, 216.412 409.236, 216.431 412.355, 216.440 415.846, 216.442 419.318, 216.436 422.380, 216.420 424.723, 216.387 426.363, 216.307 427.400, 216.141 427.948, 215.858 428.022, 215.368 427.603, 214.485 426.573, 212.965 424.828, 210.570 422.353, 207.195 419.475, 203.272 416.611, 199.368 414.176, 196.048 412.477, 193.731 411.393, 192.254 410.697, 191.304 410.160, 190.571 409.483, 189.646 408.084, 187.736 405.311, 183.949 400.512, 177.395 394.604, 169.327 393.367, 167.638 387.459, 159.570 384.893, 156.067 378.985, 147.999 376.442, 144.525 370.533, 136.457 369.362, 134.857 364.666, 128.445 362.009, 124.816 360.707, 123.038 360.076, 122.176 359.492, 121.379 358.575, 120.126 357.002, 117.979 354.453, 114.497 350.767, 109.465 346.433, 103.545 342.098, 97.626 338.411, 92.591 335.852, 89.114 334.223, 87.013 333.155, 85.889 332.281, 85.349 331.102, 85.053 328.597, 84.899 323.613, 84.842 314.998, 84.837 304.998, 84.844 302.198, 84.845 292.198, 84.854 287.051, 84.858 277.051, 84.866 271.998, 84.870 261.998, 84.877 259.476, 84.879 251.312, 84.886 246.884, 84.914 244.958, 84.993 244.301, 85.151 243.856, 85.434 243.277, 85.959 242.397, 86.861 241.047, 88.273 239.141, 90.255 236.915, 92.559 234.689, 94.863 232.783, 96.843 231.435, 98.254 230.558, 99.156 229.986, 99.684 229.551, 99.975 228.946, 100.151 227.298, 100.285 223.593, 100.433 216.816, 100.653 206.821, 100.972 206.461, 100.984 196.466, 101.303 194.047, 101.380 184.052, 101.699 181.603, 101.777 171.608, 102.096 171.154, 102.111 164.223, 102.329 160.312, 102.432 158.421, 102.433 157.547, 102.345 156.774, 102.142 155.526, 101.647 153.313, 100.642 149.645, 98.908 144.266, 96.342 137.866, 93.282 131.372, 90.183 125.707, 87.497 121.576, 85.571 118.790, 84.332 116.941, 83.602 115.619, 83.202 114.282, 82.979 111.861, 82.880 107.156, 82.878 98.966, 82.945 88.966, 83.033 86.674, 83.054 76.674, 83.142 72.003, 83.183 62.004, 83.271 57.261, 83.313 47.262, 83.399 44.756, 83.421 36.244, 83.502 31.283, 83.605 28.877, 83.793 28.010, 84.121 27.882, 84.779 28.047, 86.304 28.276, 89.370 28.318, 94.639 27.992, 102.424 27.401, 111.621 26.716, 120.777 26.112, 128.437 25.722, 133.562 25.521, 136.781 25.447, 139.140 25.437, 141.685 25.437, 145.189 25.437, 149.347 25.437, 153.580 25.437, 157.310 25.437, 160.098 25.438, 162.056 25.440, 163.431 25.443, 164.474 25.465, 165.926 25.585, 170.493 25.871, 180.489 25.896, 181.374 26.190, 191.369 26.483, 201.365 26.495, 201.766 26.791, 211.762 27.086, 221.757 27.382, 231.753 27.427, 233.279 27.724, 243.275 28.020, 253.271 28.317, 263.266 28.551, 271.162 28.847, 281.158 29.143, 291.153 29.440, 301.149 29.675, 309.074 29.970, 319.070 30.265, 329.066 30.560, 339.061 30.608, 340.675 30.904, 350.671 31.200, 360.666 31.216, 361.197 31.555, 371.191 31.588, 372.165 31.868, 376.680 32.193, 377.849 32.901, 378.234 34.956, 378.437 39.521, 378.512 47.753, 378.523 57.753, 378.523 60.215, 378.523 70.215, 378.523 75.099, 378.523 85.099, 378.523 90.003, 378.523 100.003, 378.523 102.526, 378.523 110.856, 378.510 115.545, 378.418 117.736, 378.170 118.579, 377.700 119.053, 376.397 119.649, 371.760 120.584, 361.804 120.683, 360.743 121.561, 350.781 122.438, 340.820 122.483, 340.311 123.356, 330.350 124.229, 320.388 125.102, 310.426 125.229, 308.981 126.102, 299.019 126.976, 289.057 127.850, 279.096 128.520, 271.456 129.394, 261.494 130.268, 251.532 131.143, 241.570 131.808, 233.988 132.684, 224.026 133.560, 214.065 134.435, 204.103 134.547, 202.830 " />
            <path fill="#000000" stroke-width="4.199999809265137" stroke-linecap="butt" stroke-opacity="1.0" stroke="rgb(0, 0, 0)" stroke-linejoin="miter" d=" M 341.822, 248.613 338.882, 245.601 336.830, 243.579 335.310, 242.312 333.978, 241.552 332.111, 241.127 327.655, 240.903 318.180, 240.820 308.180, 240.813 301.265, 240.808 291.265, 240.808 281.265, 240.808 275.713, 240.808 265.713, 240.808 255.713, 240.808 245.713, 240.808 245.229, 240.808 235.229, 240.808 225.229, 240.808 215.229, 240.808 214.742, 240.808 204.742, 240.808 194.742, 240.808 189.184, 240.808 179.184, 240.815 172.287, 240.820 163.005, 240.903 159.098, 241.127 158.287, 241.552 158.912, 242.312 160.987, 243.579 165.140, 245.601 171.968, 248.613 181.171, 252.525 181.801, 252.792 190.966, 256.793 193.918, 258.082 202.974, 262.323 207.334, 264.365 216.200, 268.990 221.064, 271.527 229.646, 276.661 234.287, 279.437 242.569, 285.041 246.825, 287.920 254.830, 293.913 258.665, 296.783 266.422, 303.094 269.794, 305.837 277.329, 312.412 280.195, 314.912 287.502, 321.739 289.838, 323.921 296.901, 331.001 298.694, 332.798 305.487, 340.137 306.729, 341.478 313.235, 349.072 313.897, 349.844 320.093, 357.576 325.197, 364.304 329.089, 369.657 331.732, 373.389 333.433, 375.747 334.580, 377.101 335.555, 377.832 336.924, 378.227 339.796, 378.435 345.466, 378.512 355.221, 378.523 365.221, 378.523 369.680, 378.523 379.680, 378.523 386.803, 378.523 396.803, 378.523 403.886, 378.523 413.886, 378.523 418.223, 378.523 427.764, 378.512 433.088, 378.435 435.429, 378.227 436.043, 377.832 435.889, 377.101 435.216, 375.747 433.976, 373.389 432.143, 369.657 429.685, 364.304 426.546, 357.576 422.664, 349.844 417.979, 341.478 412.619, 333.036 412.468, 332.798 406.736, 324.604 406.258, 323.921 400.267, 315.914 399.517, 314.912 393.354, 307.038 392.414, 305.837 386.136, 298.053 385.112, 296.783 378.730, 289.084 377.765, 287.920 371.273, 280.314 370.525, 279.437 363.907, 271.940 363.542, 271.527 356.978, 264.365 351.031, 258.082 345.910, 252.792 341.822, 248.613 " />
            <path fill="#000000" stroke-width="4.199999809265137" stroke-linecap="butt" stroke-opacity="1.0" stroke="rgb(0, 0, 0)" stroke-linejoin="miter" d=" M 865.622, 360.636 859.849, 360.636 852.658, 353.687 845.468, 346.737 838.277, 339.788 831.086, 332.838 823.896, 325.889 816.705, 318.939 809.515, 311.990 802.324, 305.040 795.134, 298.091 787.943, 291.141 780.752, 284.192 773.562, 277.242 766.371, 270.293 759.181, 263.343 751.990, 256.394 744.799, 249.444 737.609, 242.495 731.915, 236.992 736.186, 227.950 740.458, 218.908 744.729, 209.866 749.001, 200.824 753.272, 191.783 757.543, 182.741 761.815, 173.699 766.086, 164.657 769.998, 156.376 761.641, 161.868 753.284, 167.360 751.903, 168.268 741.903, 168.293 741.346, 168.294 731.346, 168.319 730.210, 168.322 720.211, 168.408 710.211, 168.495 700.212, 168.582 690.212, 168.669 680.212, 168.755 674.350, 168.806 671.505, 178.393 668.660, 187.980 665.816, 197.567 662.971, 207.153 660.126, 216.740 659.814, 217.793 657.331, 227.480 654.848, 237.166 652.365, 246.853 649.882, 256.540 647.400, 266.227 644.917, 275.914 643.181, 282.688 641.259, 292.502 639.338, 302.315 637.416, 312.129 635.495, 321.943 633.574, 331.756 631.652, 341.570 629.731, 351.384 627.809, 361.197 625.888, 371.011 625.508, 372.952 625.508, 378.255 618.561, 378.535 608.561, 378.561 598.561, 378.587 588.561, 378.613 578.561, 378.639 568.561, 378.665 558.561, 378.691 548.561, 378.717 538.561, 378.743 528.561, 378.769 518.561, 378.795 508.561, 378.821 498.561, 378.846 488.561, 378.872 478.561, 378.898 467.376, 378.927 458.642, 377.754 461.350, 371.417 465.280, 362.222 469.210, 353.026 473.140, 343.831 477.070, 334.635 481.000, 325.440 484.930, 316.245 488.860, 307.049 492.790, 297.854 496.720, 288.658 500.650, 279.463 504.580, 270.268 506.663, 265.396 510.593, 256.200 514.523, 247.005 518.453, 237.809 522.383, 228.614 526.313, 219.419 530.243, 210.223 534.173, 201.028 538.103, 191.832 539.587, 188.359 543.517, 179.164 547.447, 169.968 551.377, 160.773 551.515, 160.450 553.595, 155.585 557.525, 146.389 561.455, 137.194 565.385, 127.998 569.315, 118.803 573.245, 109.608 573.478, 109.061 575.759, 103.724 577.844, 98.845 581.612, 89.582 585.379, 80.319 586.579, 77.369 595.496, 77.369 605.496, 77.369 615.496, 77.369 625.496, 77.369 635.496, 77.369 645.496, 77.369 655.496, 77.369 665.496, 77.369 675.496, 77.369 682.702, 77.369 688.205, 77.386 692.403, 86.462 696.602, 95.538 696.795, 95.955 698.637, 99.892 708.637, 99.839 718.636, 99.786 728.636, 99.733 738.636, 99.680 742.081, 99.662 752.081, 99.662 752.334, 99.662 762.334, 99.662 772.334, 99.662 781.161, 99.662 785.688, 90.746 790.216, 81.829 794.743, 72.913 794.896, 72.613 799.665, 63.779 802.306, 73.424 802.547, 74.303 805.188, 83.948 807.828, 93.593 809.498, 99.692 812.196, 109.321 814.894, 118.950 816.551, 124.865 819.336, 134.470 822.122, 144.074 824.907, 153.678 827.693, 163.282 830.478, 172.886 833.264, 182.491 835.467, 190.089 836.893, 195.294 839.533, 204.939 840.191, 207.340 842.788, 216.997 845.386, 226.653 847.983, 236.310 850.581, 245.967 853.179, 255.624 855.776, 265.280 858.374, 274.937 860.972, 284.594 863.569, 294.250 866.167, 303.907 868.764, 313.564 871.362, 323.221 873.960, 332.877 876.557, 342.534 879.155, 352.191 881.427, 360.636 875.785, 360.636 865.785, 360.636 865.622, 360.636 " />
            <path fill="#000000" stroke-width="4.199999809265137" stroke-linecap="butt" stroke-opacity="1.0" stroke="rgb(0, 0, 0)" stroke-linejoin="miter" d=" M 1040.169, 331.743 1040.582, 321.752 1040.994, 311.760 1041.407, 301.769 1041.820, 291.778 1042.233, 281.786 1042.646, 271.795 1043.058, 261.803 1043.471, 251.812 1043.884, 241.820 1044.297, 231.829 1044.710, 221.837 1044.920, 216.745 1046.467, 206.865 1048.014, 196.986 1049.561, 187.106 1051.108, 177.227 1052.655, 167.347 1054.202, 157.467 1055.749, 147.588 1057.295, 137.708 1058.842, 127.828 1060.389, 117.949 1061.936, 108.069 1063.483, 98.190 1065.030, 88.310 1066.329, 80.012 1056.329, 80.025 1046.329, 80.037 1036.329, 80.050 1026.329, 80.062 1016.329, 80.074 1006.329, 80.087 996.329, 80.099 986.329, 80.112 976.329, 80.124 966.329, 80.137 956.329, 80.149 946.329, 80.162 936.329, 80.174 925.502, 80.188 926.972, 90.079 928.443, 99.970 929.914, 109.861 931.385, 119.753 932.855, 129.644 934.326, 139.535 935.797, 149.426 937.268, 159.318 938.738, 169.209 940.209, 179.100 941.680, 188.991 943.151, 198.883 944.621, 208.774 945.871, 217.181 946.034, 227.180 946.196, 237.179 946.358, 247.177 946.520, 257.176 946.682, 267.175 946.844, 277.173 947.006, 287.172 947.168, 297.171 947.330, 307.169 947.492, 317.168 947.654, 327.167 947.715, 330.919 942.739, 339.593 937.762, 348.267 932.786, 356.940 927.809, 365.614 922.833, 374.288 921.767, 376.146 931.767, 376.154 941.767, 376.161 951.767, 376.168 961.767, 376.175 971.767, 376.183 981.767, 376.190 991.767, 376.197 1001.767, 376.204 1011.767, 376.212 1021.767, 376.219 1031.767, 376.226 1041.767, 376.233 1051.767, 376.240 1060.347, 376.247 1056.218, 367.139 1052.088, 358.032 1047.959, 348.924 1043.829, 339.817 1040.169, 331.743 " />
            <path fill="#000000" stroke-width="4.199999809265137" stroke-linecap="butt" stroke-opacity="1.0" stroke="rgb(0, 0, 0)" stroke-linejoin="miter" d=" M 1441.291, 109.548 1444.489, 100.073 1447.686, 90.598 1447.833, 90.162 1437.833, 90.162 1427.833, 90.162 1417.833, 90.162 1407.833, 90.162 1397.833, 90.162 1387.833, 90.162 1377.833, 90.162 1367.833, 90.162 1362.314, 90.162 1364.764, 99.857 1367.213, 109.553 1367.307, 109.926 1364.432, 119.504 1361.557, 129.082 1358.682, 138.659 1355.807, 148.237 1352.932, 157.815 1350.057, 167.393 1347.181, 176.971 1344.306, 186.548 1341.431, 196.126 1338.556, 205.704 1335.681, 215.282 1332.806, 224.859 1329.931, 234.437 1327.056, 244.015 1326.448, 246.039 1323.149, 236.599 1319.850, 227.159 1316.551, 217.719 1313.251, 208.278 1309.952, 198.838 1306.653, 189.398 1303.354, 179.958 1300.055, 170.518 1296.756, 161.078 1293.457, 151.638 1290.157, 142.198 1287.681, 135.111 1294.150, 127.486 1300.619, 119.860 1307.088, 112.234 1313.558, 104.609 1320.027, 96.983 1326.496, 89.358 1332.931, 81.773 1322.931, 81.773 1312.931, 81.773 1302.931, 81.773 1292.931, 81.773 1282.931, 81.773 1272.931, 81.773 1262.931, 81.773 1252.931, 81.773 1242.931, 81.773 1232.931, 81.773 1222.931, 81.773 1212.931, 81.773 1202.931, 81.773 1192.931, 81.773 1182.931, 81.773 1172.931, 81.773 1162.931, 81.773 1153.262, 81.773 1151.495, 91.615 1149.727, 101.458 1147.959, 111.300 1147.898, 111.644 1146.096, 121.480 1144.294, 131.317 1142.493, 141.153 1140.691, 150.989 1138.889, 160.826 1137.087, 170.662 1135.286, 180.499 1133.484, 190.335 1132.720, 194.505 1130.918, 204.341 1129.117, 214.177 1128.428, 217.935 1126.622, 227.770 1124.816, 237.606 1123.010, 247.441 1121.204, 257.277 1119.398, 267.112 1117.592, 276.948 1115.786, 286.783 1113.979, 296.619 1112.173, 306.455 1110.367, 316.290 1108.561, 326.126 1106.755, 335.961 1104.949, 345.797 1103.143, 355.632 1101.337, 365.468 1099.530, 375.303 1098.736, 379.628 1108.736, 379.628 1109.258, 379.628 1115.124, 371.529 1120.990, 363.431 1126.856, 355.332 1132.722, 347.233 1138.588, 339.134 1144.454, 331.036 1150.320, 322.937 1156.186, 314.838 1162.052, 306.739 1167.918, 298.641 1173.784, 290.542 1179.650, 282.443 1185.516, 274.344 1191.382, 266.246 1197.248, 258.147 1203.114, 250.048 1208.980, 241.950 1214.846, 233.851 1221.027, 225.317 1216.090, 216.621 1211.152, 207.925 1206.215, 199.229 1201.277, 190.533 1196.340, 181.837 1195.441, 180.254 1202.237, 187.589 1209.034, 194.924 1215.830, 202.260 1222.627, 209.595 1229.423, 216.930 1236.219, 224.266 1243.016, 231.601 1249.812, 238.937 1256.609, 246.272 1263.405, 253.607 1270.202, 260.943 1276.998, 268.278 1283.795, 275.614 1290.591, 282.949 1297.388, 290.284 1304.184, 297.620 1305.396, 298.927 1301.880, 308.288 1298.363, 317.650 1294.847, 327.011 1291.331, 336.373 1287.815, 345.734 1284.299, 355.096 1280.783, 364.457 1277.267, 373.819 1274.012, 382.485 1284.012, 382.389 1294.011, 382.294 1304.011, 382.199 1314.010, 382.104 1324.010, 382.008 1334.009, 381.913 1344.009, 381.818 1354.008, 381.723 1364.008, 381.627 1374.008, 381.532 1384.007, 381.437 1394.007, 381.342 1404.006, 381.247 1414.006, 381.151 1424.005, 381.056 1434.005, 380.961 1444.004, 380.866 1454.004, 380.770 1464.003, 380.675 1469.900, 380.619 1468.850, 370.674 1467.800, 360.729 1466.751, 350.785 1465.701, 340.840 1464.652, 330.895 1463.602, 320.950 1462.553, 311.006 1461.503, 301.061 1461.109, 297.328 1460.060, 287.383 1459.010, 277.438 1457.960, 267.493 1456.911, 257.548 1455.861, 247.604 1455.741, 246.467 1454.692, 236.523 1453.642, 226.578 1452.593, 216.633 1451.543, 206.688 1450.494, 196.744 1449.444, 186.799 1448.395, 176.854 1447.345, 166.909 1446.296, 156.965 1445.246, 147.020 1444.196, 137.075 1443.147, 127.130 1442.097, 117.185 1441.291, 109.548 " />
            <path fill="#000000" stroke-width="4.199999809265137" stroke-linecap="butt" stroke-opacity="1.0" stroke="rgb(0, 0, 0)" stroke-linejoin="miter" d=" M 1532.679, 382.156 1542.679, 382.050 1552.678, 381.945 1562.678, 381.840 1572.677, 381.735 1582.676, 381.629 1592.676, 381.524 1602.675, 381.419 1612.675, 381.313 1622.674, 381.208 1632.674, 381.103 1642.673, 380.997 1652.673, 380.892 1662.672, 380.787 1672.672, 380.681 1682.671, 380.576 1692.670, 380.471 1702.670, 380.365 1712.669, 380.260 1722.669, 380.155 1732.668, 380.050 1742.668, 379.944 1752.667, 379.839 1762.667, 379.734 1772.666, 379.628 1782.665, 379.523 1792.665, 379.418 1802.664, 379.312 1812.664, 379.207 1824.923, 379.078 1830.023, 370.476 1835.123, 361.875 1840.224, 353.273 1845.324, 344.672 1850.424, 336.070 1855.525, 327.469 1860.625, 318.867 1865.725, 310.266 1870.826, 301.664 1875.926, 293.062 1881.026, 284.461 1886.127, 275.859 1891.227, 267.258 1894.156, 262.319 1884.501, 259.715 1874.846, 257.111 1865.191, 254.506 1855.536, 251.902 1845.881, 249.298 1836.226, 246.694 1826.571, 244.090 1816.916, 241.486 1807.261, 238.882 1797.606, 236.278 1787.951, 233.674 1778.296, 231.070 1768.641, 228.465 1758.986, 225.861 1749.331, 223.257 1746.868, 222.593 1742.457, 231.567 1738.045, 240.542 1733.634, 249.516 1729.223, 258.491 1728.083, 260.808 1732.286, 269.882 1736.488, 278.957 1740.690, 288.031 1744.893, 297.105 1749.095, 306.179 1753.443, 315.569 1743.695, 317.799 1733.947, 320.029 1724.199, 322.260 1714.451, 324.490 1704.703, 326.720 1694.955, 328.951 1685.207, 331.181 1675.458, 333.411 1665.710, 335.642 1655.962, 337.872 1646.214, 340.102 1636.466, 342.333 1626.718, 344.563 1616.970, 346.793 1607.222, 349.024 1597.474, 351.254 1587.725, 353.484 1577.977, 355.714 1568.229, 357.945 1558.481, 360.175 1548.733, 362.405 1538.985, 364.636 1529.929, 366.708 1531.682, 376.553 1532.679, 382.156 " />
            <path fill="#000000" stroke-width="4.199999809265137" stroke-linecap="butt" stroke-opacity="1.0" stroke="rgb(0, 0, 0)" stroke-linejoin="miter" d=" M 1514.817, 274.038 1524.817, 274.038 1534.817, 274.038 1544.817, 274.038 1554.817, 274.038 1564.817, 274.038 1574.817, 274.038 1584.817, 274.038 1594.817, 274.038 1604.817, 274.038 1614.817, 274.038 1624.817, 274.038 1634.817, 274.038 1644.817, 274.038 1654.817, 274.038 1664.817, 274.038 1674.817, 274.038 1684.817, 274.038 1692.501, 274.038 1697.288, 265.258 1702.076, 256.478 1706.863, 247.699 1711.650, 238.919 1715.937, 231.058 1706.199, 228.783 1696.461, 226.509 1686.723, 224.234 1676.985, 221.960 1667.248, 219.685 1657.510, 217.411 1647.772, 215.136 1638.034, 212.862 1628.296, 210.587 1618.558, 208.312 1608.820, 206.038 1599.082, 203.763 1589.344, 201.489 1579.607, 199.214 1569.869, 196.940 1560.131, 194.665 1550.393, 192.391 1540.655, 190.116 1535.079, 188.814 1531.480, 198.144 1527.882, 207.474 1524.283, 216.804 1520.684, 226.134 1517.085, 235.464 1513.486, 244.794 1509.888, 254.124 1508.670, 257.281 1512.114, 266.669 1514.817, 274.038 " />
            <path fill="#000000" stroke-width="4.199999809265137" stroke-linecap="butt" stroke-opacity="1.0" stroke="rgb(0, 0, 0)" stroke-linejoin="miter" d=" M 1647.894, 87.367 1637.895, 87.262 1627.895, 87.158 1617.896, 87.054 1607.896, 86.950 1597.897, 86.845 1587.897, 86.741 1577.898, 86.637 1574.332, 86.599 1564.332, 86.599 1554.332, 86.599 1544.332, 86.599 1534.332, 86.599 1524.332, 86.599 1517.343, 86.599 1515.070, 95.757 1516.448, 105.662 1517.827, 115.566 1519.205, 125.471 1520.583, 135.375 1521.962, 145.280 1523.340, 155.184 1524.313, 162.173 1534.057, 164.423 1543.800, 166.673 1553.544, 168.923 1563.287, 171.173 1573.031, 173.423 1582.774, 175.673 1592.518, 177.923 1602.261, 180.173 1612.005, 182.424 1621.468, 184.609 1625.790, 175.591 1630.111, 166.573 1634.433, 157.555 1638.755, 148.537 1643.077, 139.520 1647.399, 130.502 1651.721, 121.484 1656.043, 112.466 1660.365, 103.448 1663.683, 96.524 1673.682, 96.646 1683.681, 96.767 1693.681, 96.888 1703.680, 97.009 1713.679, 97.131 1715.205, 97.149 1710.475, 105.960 1705.746, 114.771 1701.016, 123.582 1696.287, 132.393 1693.740, 137.137 1703.708, 137.934 1713.676, 138.731 1723.645, 139.529 1733.613, 140.326 1743.581, 141.123 1753.549, 141.920 1763.517, 142.717 1773.485, 143.515 1783.453, 144.312 1793.422, 145.109 1803.390, 145.906 1813.358, 146.704 1823.326, 147.501 1833.294, 148.298 1843.263, 149.095 1845.103, 149.242 1850.051, 140.553 1855.000, 131.863 1859.948, 123.173 1864.896, 114.483 1869.844, 105.793 1874.792, 97.103 1879.740, 88.413 1881.177, 85.890 1871.178, 86.036 1861.179, 86.182 1851.180, 86.328 1841.181, 86.474 1832.573, 86.599 1822.574, 86.641 1812.574, 86.683 1802.574, 86.724 1792.574, 86.766 1782.574, 86.807 1772.574, 86.849 1762.574, 86.890 1752.574, 86.932 1742.574, 86.973 1732.574, 87.015 1722.574, 87.056 1712.574, 87.098 1702.575, 87.140 1692.575, 87.181 1682.575, 87.223 1672.575, 87.264 1662.575, 87.306 1652.575, 87.347 1647.894, 87.367 " />
        </g>
    </g>
</svg>
